<?xml version="1.0" encoding="UTF-8"?>
<svg version="1.1" xmlns="http://www.w3.org/2000/svg" width="225" height="225">
<path d="M0 0 C74.25 0 148.5 0 225 0 C225 74.25 225 148.5 225 225 C150.75 225 76.5 225 0 225 C0 150.75 0 76.5 0 0 Z " fill="#FF0000" transform="translate(0,0)"/>
<path d="M0 0 C4.22199783 1.72912285 8.11323594 3.9121965 12.0625 6.1875 C13.7917547 7.15244255 15.52102104 8.11736533 17.25114441 9.08074951 C19.02035575 10.06904889 20.78484928 11.06538507 22.54882812 12.06298828 C26.78125303 14.43848766 31.05238642 16.73603968 35.33105469 19.02685547 C44.20597851 23.78408208 53.03299583 28.6314935 61.8125 33.5625 C62.69655518 34.05121582 63.58061035 34.53993164 64.49145508 35.04345703 C65.30509521 35.50478027 66.11873535 35.96610352 66.95703125 36.44140625 C67.66835205 36.84045166 68.37967285 37.23949707 69.11254883 37.65063477 C71.38480667 39.27510367 72.55200636 40.59431262 74 43 C74.39440918 46.09811401 74.39440918 46.09811401 74.41992188 49.78466797 C74.42839142 50.45836426 74.43686096 51.13206055 74.44558716 51.82617188 C74.46894346 54.04837033 74.46997961 56.26987569 74.46875 58.4921875 C74.47585324 60.04151688 74.48355248 61.59084364 74.49182129 63.14016724 C74.50526348 66.38665071 74.50683649 69.63289103 74.50097656 72.87939453 C74.49508525 77.03134906 74.52564802 81.18213229 74.56609344 85.3338604 C74.59199873 88.53388712 74.59484528 91.73363303 74.59120178 94.93375015 C74.59289089 96.46391871 74.60251342 97.99410053 74.62034607 99.52416611 C74.64259115 101.66907818 74.63280983 103.81163599 74.61523438 105.95654297 C74.61728882 107.17469696 74.61934326 108.39285095 74.62145996 109.6479187 C73.78958002 114.13498041 72.1748382 115.76166986 69 119 C66.67016602 120.59228516 66.67016602 120.59228516 64.25390625 121.7890625 C62.892052 122.47911377 62.892052 122.47911377 61.50268555 123.18310547 C60.0472937 123.89684326 60.0472937 123.89684326 58.5625 124.625 C56.47560459 125.68039967 54.38968947 126.73773964 52.3046875 127.796875 C51.24862305 128.32990234 50.19255859 128.86292969 49.10449219 129.41210938 C44.4158327 131.81027242 39.80111545 134.33625953 35.1875 136.875 C33.38932733 137.85677891 31.59115015 138.83854957 29.79296875 139.8203125 C26.132834 141.82371436 22.48208097 143.84309495 18.8372345 145.87417603 C17.05972202 146.86221772 15.27914911 147.84448408 13.49731445 148.82470703 C11.21027107 150.08373838 8.92858698 151.35256724 6.65307617 152.63232422 C5.61256104 153.20225098 4.5720459 153.77217773 3.5 154.359375 C2.5821875 154.86952148 1.664375 155.37966797 0.71875 155.90527344 C-3.45594396 157.58624755 -6.50943287 157.59847503 -10.68701172 155.92114258 C-11.59209473 155.41736084 -12.49717773 154.9135791 -13.4296875 154.39453125 C-14.4599707 153.82976074 -15.49025391 153.26499023 -16.55175781 152.68310547 C-17.64842773 152.06580566 -18.74509766 151.44850586 -19.875 150.8125 C-21.62560384 149.84777627 -23.37621406 148.88306375 -25.12731934 147.91925049 C-26.92208665 146.92916723 -28.71374391 145.93364168 -30.50488281 144.93701172 C-34.74913165 142.58482743 -39.01557825 140.27575683 -43.28686523 137.97314453 C-46.2351227 136.38302396 -49.17843327 134.78404398 -52.12109375 133.18359375 C-56.16450773 130.98739722 -60.22053289 128.81683092 -64.28515625 126.66015625 C-65.29739258 126.11891113 -66.30962891 125.57766602 -67.35253906 125.02001953 C-69.27634216 123.99147353 -71.20389959 122.96990835 -73.13574219 121.95654297 C-73.99458008 121.49521973 -74.85341797 121.03389648 -75.73828125 120.55859375 C-76.49149658 120.15954834 -77.24471191 119.76050293 -78.02075195 119.34936523 C-80.38744923 117.73585396 -81.52399987 116.47082938 -83 114 C-83.40786743 110.82595825 -83.40786743 110.82595825 -83.45166016 107.03173828 C-83.46918335 105.99193314 -83.46918335 105.99193314 -83.48706055 104.93112183 C-83.52060014 102.64404401 -83.53137798 100.35761446 -83.5390625 98.0703125 C-83.5512466 96.47614312 -83.56373272 94.88197603 -83.57650757 93.28781128 C-83.59897273 89.94719306 -83.60853649 86.60680278 -83.61083984 83.26611328 C-83.61612237 78.99275055 -83.66745104 74.72129244 -83.73035622 70.44844246 C-83.77129193 67.15575761 -83.78048254 63.86353032 -83.78095627 60.57061386 C-83.78633088 58.99573578 -83.80315448 57.42085235 -83.83180618 55.84622574 C-84.03482172 43.67410775 -84.03482172 43.67410775 -81.64668274 39.81063843 C-79.84856034 38.18880377 -78.14949727 37.10604782 -76 36 C-75.40884399 35.64050262 -74.81768799 35.28100525 -74.20861816 34.91061401 C-72.38846096 33.8302907 -70.53840567 32.85860744 -68.65234375 31.8984375 C-67.62386826 31.36027908 -67.62386826 31.36027908 -66.57461548 30.81124878 C-64.36638588 29.65767091 -62.15200824 28.5164701 -59.9375 27.375 C-57.63628532 26.17571023 -55.33682015 24.97311053 -53.03739929 23.77038574 C-51.51085726 22.97221877 -49.98376969 22.1750943 -48.45613098 21.37902832 C-42.11823315 18.07435033 -35.82882475 14.68877526 -29.5625 11.25 C-28.73806396 10.79802246 -27.91362793 10.34604492 -27.06420898 9.88037109 C-26.28118408 9.45062988 -25.49815918 9.02088867 -24.69140625 8.578125 C-23.93102051 8.16626953 -23.17063477 7.75441406 -22.38720703 7.33007812 C-20.66438899 6.37017705 -18.96456932 5.36858995 -17.28076172 4.34179688 C-11.48912376 0.90718584 -6.77618799 -1.69509681 0 0 Z " fill="#FFFAFA" transform="translate(117,37)"/>
<path d="M0 0 C2.68672234 1.22008855 5.29567828 2.46771814 7.88037109 3.89038086 C9.27703003 4.65342529 9.27703003 4.65342529 10.7019043 5.43188477 C11.69407959 5.98021973 12.68625488 6.52855469 13.70849609 7.09350586 C15.8422607 8.26341524 17.97638901 9.43266144 20.11083984 10.60131836 C21.22313965 11.21136719 22.33543945 11.82141602 23.48144531 12.44995117 C27.04726833 14.39185002 30.62664791 16.30598145 34.21240234 18.21069336 C35.40352382 18.84505696 36.59460499 19.47949624 37.78564453 20.11401367 C40.07723615 21.3333279 42.37080518 22.5489343 44.66650391 23.76049805 C45.70774414 24.31640625 46.74898438 24.87231445 47.82177734 25.44506836 C48.7425708 25.93313965 49.66336426 26.42121094 50.61206055 26.92407227 C52.75724564 28.22176305 54.29634827 29.48413072 55.95849609 31.34350586 C55.10433105 31.79564453 54.25016602 32.2477832 53.37011719 32.71362305 C50.09148351 34.44960864 46.81375973 36.18730631 43.53631592 37.92553711 C42.07073741 38.70260924 40.6049585 39.47930354 39.13897705 40.25561523 C31.77836213 44.15417598 24.42545525 48.06059108 17.14599609 52.10913086 C16.15164551 52.66117188 15.15729492 53.21321289 14.1328125 53.78198242 C12.31307051 54.79707659 10.49737978 55.81947984 8.68652344 56.8503418 C7.87650879 57.30183594 7.06649414 57.75333008 6.23193359 58.21850586 C5.54534668 58.60780273 4.85875977 58.99709961 4.15136719 59.39819336 C0.28604571 61.06447311 -2.69517652 61.82718553 -6.72851562 60.37817383 C-7.63359863 59.86915527 -8.53868164 59.36013672 -9.47119141 58.83569336 C-10.50284424 58.26705566 -11.53449707 57.69841797 -12.59741211 57.11254883 C-13.6927124 56.48751465 -14.7880127 55.86248047 -15.91650391 55.21850586 C-17.64911003 54.25530515 -19.38172712 53.29212327 -21.11512756 52.33035278 C-22.90335873 51.33560757 -24.68758155 50.33392232 -26.47167969 49.33178711 C-29.92929475 47.39687042 -33.41649634 45.52059323 -36.91259766 43.65600586 C-37.99621582 43.07737793 -39.07983398 42.49875 -40.19628906 41.90258789 C-42.25872112 40.80264539 -44.32215549 39.70457964 -46.38671875 38.60864258 C-50.93291692 36.16262014 -55.16207402 33.80107876 -59.04150391 30.34350586 C-47.57174427 23.91214193 -36.03462898 17.61723808 -24.43066406 11.4309082 C-22.86517822 10.59293701 -22.86517822 10.59293701 -21.26806641 9.73803711 C-19.72747559 8.91746826 -19.72747559 8.91746826 -18.15576172 8.08032227 C-16.00007568 6.87809974 -13.88061393 5.60943934 -11.79443359 4.2902832 C-10.74932617 3.63108887 -9.70421875 2.97189453 -8.62744141 2.29272461 C-7.23211182 1.37559692 -7.23211182 1.37559692 -5.80859375 0.43994141 C-3.04150391 -0.65649414 -3.04150391 -0.65649414 0 0 Z " fill="#FF0101" transform="translate(114.04150390625,51.656494140625)"/>
<path d="M0 0 C2.84570312 1.30566406 2.84570312 1.30566406 5.84570312 3.30566406 C10.98429667 3.8372427 13.42068285 3.66724615 17.70117188 0.82910156 C21.15753811 -0.7593229 22.47327185 -0.81154419 26.15820312 0.34814453 C30.09029273 2.16540938 33.80488169 4.35832728 37.53320312 6.55566406 C38.81725328 7.28014141 40.10305494 8.00152355 41.390625 8.71972656 C44.58395445 10.51116206 47.75319641 12.3408874 50.91644287 14.18481445 C54.20100184 16.09305707 57.50273312 17.97117337 60.80273438 19.85253906 C61.97574376 20.52265267 63.14868445 21.19288655 64.3215332 21.86328125 C65.57099731 22.57726074 65.57099731 22.57726074 66.84570312 23.30566406 C66.84570312 23.96566406 66.84570312 24.62566406 66.84570312 25.30566406 C66.05212402 25.72750977 65.25854492 26.14935547 64.44091797 26.58398438 C61.38634955 28.20844538 58.33224914 29.83377857 55.27856445 31.4598999 C53.90903988 32.18914046 52.5394113 32.91818576 51.16967773 33.64703369 C44.14795311 37.38442338 37.13338348 41.13160733 30.16601562 44.96972656 C29.17424316 45.5159668 28.1824707 46.06220703 27.16064453 46.625 C25.32973682 47.6368425 23.50114887 48.65289791 21.67529297 49.67382812 C20.85496582 50.12725586 20.03463867 50.58068359 19.18945312 51.04785156 C18.49013672 51.43827637 17.79082031 51.82870117 17.0703125 52.23095703 C9.95005631 55.67074717 9.95005631 55.67074717 5.94335938 54.34619141 C4.94175781 53.78367676 3.94015625 53.22116211 2.90820312 52.64160156 C1.77592285 52.01938721 0.64364258 51.39717285 -0.52294922 50.75610352 C-1.73362945 50.06469472 -2.94407378 49.37287271 -4.15429688 48.68066406 C-5.40144473 47.98628939 -6.64966697 47.29384108 -7.89892578 46.60327148 C-10.43392906 45.19878238 -12.96276503 43.78404658 -15.48730469 42.36083984 C-18.86474357 40.46093352 -22.26594558 38.60815186 -25.67773438 36.77050781 C-26.6703125 36.23570801 -27.66289063 35.7009082 -28.68554688 35.14990234 C-29.62398437 34.64442871 -30.56242187 34.13895508 -31.52929688 33.61816406 C-36.90318856 30.71996197 -42.13899085 27.79350718 -47.15429688 24.30566406 C-43.97519038 21.76889815 -40.65390524 19.87540928 -37.06054688 17.97753906 C-36.47317749 17.66544495 -35.88580811 17.35335083 -35.28063965 17.03179932 C-33.40687958 16.03653086 -31.53083513 15.04568309 -29.65429688 14.05566406 C-27.81361336 13.08338318 -25.97353495 12.1100236 -24.13500977 11.13366699 C-22.92068947 10.48897065 -21.70503102 9.84678836 -20.48803711 9.20715332 C-15.43723849 6.52816168 -10.62764719 3.51972138 -5.85546875 0.36914062 C-3.15429688 -0.69433594 -3.15429688 -0.69433594 0 0 Z " fill="#FF0101" transform="translate(102.154296875,123.6943359375)"/>
<path d="M0 0 C18.2516129 9.12580645 18.2516129 9.12580645 25.8125 13.4375 C27.31769007 14.29269266 28.82414593 15.1456624 30.33203125 15.99609375 C30.96858643 16.35888428 31.6051416 16.7216748 32.26098633 17.09545898 C34.15764238 18.13989665 34.15764238 18.13989665 37 19 C37 19.66 37 20.32 37 21 C36.04915527 21.49028687 36.04915527 21.49028687 35.07910156 21.99047852 C19.33570057 30.06214563 19.33570057 30.06214563 4.01171875 38.890625 C2 40 2 40 0 40 C0 26.8 0 13.6 0 0 Z " fill="#FF0202" transform="translate(48,95)"/>
<path d="M0 0 C0 12.87 0 25.74 0 39 C-18.40540541 29.7972973 -18.40540541 29.7972973 -27 25 C-27.88171875 24.51144531 -28.7634375 24.02289063 -29.671875 23.51953125 C-31.7829036 22.34928713 -33.89226752 21.17616677 -36 20 C-36 19.34 -36 18.68 -36 18 C-35.3608667 17.66790527 -34.7217334 17.33581055 -34.06323242 16.99365234 C-31.10406332 15.4552366 -28.14577944 13.91512579 -25.1875 12.375 C-24.18267578 11.85292969 -23.17785156 11.33085938 -22.14257812 10.79296875 C-16.10084254 7.64582674 -10.11079459 4.42823349 -4.1730957 1.08837891 C-2 0 -2 0 0 0 Z " fill="#FF0202" transform="translate(176,96)"/>
</svg>
