<svg width="111" height="32" viewBox="0 0 111 32" fill="none" xmlns="http://www.w3.org/2000/svg">
<path d="M9.16925 10.9985C10.0638 10.9985 10.8093 10.2472 10.8093 9.34548C10.8093 8.4438 10.0638 7.69241 9.16925 7.69241C8.27469 7.69241 7.52922 8.4438 7.52922 9.34548C7.52922 10.2847 8.27469 10.9985 9.16925 10.9985Z" fill="#E30613"/>
<path d="M5.21827 10.9985C6.11283 10.9985 6.8583 10.2472 6.8583 9.34548C6.8583 8.4438 6.11283 7.69241 5.21827 7.69241C4.32371 7.69241 3.57824 8.4438 3.57824 9.34548C3.57824 10.2847 4.32371 10.9985 5.21827 10.9985Z" fill="#E30613"/>
<path d="M66.4956 20.9169H63.402V12.4262H57.5873C54.5682 12.4262 52.1081 15.3191 52.1081 18.3622C52.1081 21.4053 54.5682 23.8849 57.5873 23.8849H60.4201C60.4201 24.1855 60.3455 24.7491 59.7864 25.1623C59.2646 25.5756 57.8109 26.1391 55.0527 25.5004L54.4191 28.3182C55.5 28.5812 56.4318 28.6563 57.2519 28.6563C59.3019 28.6563 60.6065 28.0176 61.3892 27.3789C62.4701 26.5148 63.1038 25.1999 63.1038 23.8098H69.7012V12.351H66.4956V20.9169ZM60.1964 20.9169H58.1464C56.6182 20.9169 55.3509 19.7523 55.3509 18.2119C55.3509 16.6716 56.5809 15.3942 58.1464 15.3942H60.1964V20.9169Z" fill="#E30613"/>
<path d="M68.0984 25.275C67.2038 25.275 66.4584 26.0264 66.4584 26.9281C66.4584 27.8298 67.2038 28.5812 68.0984 28.5812C68.993 28.5812 69.7384 27.8298 69.7384 26.9281C69.7384 26.0264 68.993 25.275 68.0984 25.275Z" fill="#E30613"/>
<path d="M46.778 19.0009C46.778 20.0904 45.958 20.9169 44.8771 20.9169C43.7962 20.9169 43.1625 20.0904 43.1625 19.0009V14.3047H39.9198V18.9257C39.9198 20.0153 39.0252 20.9169 37.9443 20.9169H36.8261V14.3047H33.5833V20.9169H29.5578C29.5578 20.9169 29.6323 20.8042 29.7814 20.6164C31.1605 18.5501 30.5641 15.4693 28.8868 13.7411C27.6568 12.4638 25.7932 11.8626 24.0786 12.1632C21.6185 12.5765 20.5003 14.0417 18.5994 16.7091V7.69241H15.3566V20.8794H12.2629V12.3886H5.10644C2.12457 12.3886 0 14.7931 0 18.2119C0 21.6683 2.38549 24.1855 5.29281 24.1855C6.89556 24.1855 8.12559 23.5844 8.9456 22.4573L9.02014 22.3446L9.57924 23.8474H38.2797C39.5843 23.8474 40.7398 23.3214 41.597 22.4573C42.4543 23.3214 43.6098 23.8474 44.9144 23.8474C47.4862 23.8474 50.0208 21.7435 50.0208 19.1512V12.3886H46.778V19.0009ZM9.02014 18.2495C9.02014 20.1656 7.86467 21.2926 6.11283 21.2926C4.36098 21.2926 3.24277 20.2031 3.24277 18.2495C3.24277 16.2959 4.36098 15.3942 6.11283 15.3942H9.02014V18.2495ZM27.2841 18.2119C27.2095 18.5876 27.0604 18.9633 26.8368 19.339C26.2032 20.391 24.9731 20.9169 23.7431 20.9169H18.3758C18.3758 20.9169 19.6803 19.3014 20.4258 18.4373C21.6185 17.0473 22.8486 15.3942 24.5259 15.0936C26.3895 14.7931 27.5823 16.5589 27.2841 18.2119Z" fill="#E30613"/>
<path d="M110.031 8.40622L96.0161 0.253596C95.457 -0.0845319 94.7488 -0.0845319 94.1897 0.253596L80.1749 8.40622C79.6158 8.74435 79.2431 9.34546 79.2431 10.0217V21.9689C79.2431 22.6451 79.5786 23.2463 80.1749 23.5844L94.1897 31.737C94.4879 31.8873 94.7861 32 95.1215 32C95.457 32 95.7552 31.9249 96.0534 31.737L110.068 23.5844C110.627 23.2463 111 22.6451 111 21.9689V10.0217C110.963 9.34546 110.59 8.74435 110.031 8.40622ZM107.72 19.0009L102.539 15.9953L107.72 12.9897V19.0009ZM95.0843 3.48459L106.304 10.0217L95.0843 16.5589L83.865 10.0217L95.0843 3.48459ZM82.4859 12.9522L87.6669 15.9577L82.4859 18.9633V12.9522ZM95.0843 28.4684L83.865 21.9313L90.8724 17.8362L94.1524 19.7523C94.4506 19.9026 94.7488 20.0153 95.0843 20.0153C95.4197 20.0153 95.7179 19.9401 96.0161 19.7523L99.2962 17.8362L106.304 21.9313L95.0843 28.4684Z" fill="#E30613"/>
</svg>
