<svg width="104" height="32" viewBox="0 0 104 32" fill="none" xmlns="http://www.w3.org/2000/svg">
<path d="M31.0235 8.40622L16.9014 0.253596C16.338 -0.0845319 15.6244 -0.0845319 15.061 0.253596L0.938967 8.40622C0.375587 8.74435 0 9.34546 0 10.0217V21.9689C0 22.6451 0.338028 23.2463 0.938967 23.5844L15.061 31.737C15.3615 31.8873 15.662 32 16 32C16.338 32 16.6385 31.9249 16.939 31.737L31.061 23.5844C31.6244 23.2463 32 22.6451 32 21.9689V10.0217C31.9624 9.34546 31.5869 8.74435 31.0235 8.40622ZM28.6948 19.0009L23.4742 15.9953L28.6948 12.9897V19.0009ZM16 3.48459L27.3052 10.0217L16 16.5589L4.65728 10.0217L16 3.48459ZM3.2676 12.9522L8.48827 15.9577L3.2676 18.9633V12.9522ZM16 28.4684L4.65728 21.9313L11.7183 17.8362L15.0235 19.7523C15.3239 19.9026 15.6244 20.0153 15.9624 20.0153C16.3005 20.0153 16.6009 19.9401 16.9014 19.7523L20.2066 17.8362L27.2676 21.9313L16 28.4684Z" fill="#E30613"/>
<path d="M60.7049 11.2241C56.7977 11.2241 54.0926 13.8915 54.0926 17.7236C54.0926 21.5557 56.7977 24.2232 60.6673 24.2232C64.5746 24.2232 67.2796 21.5557 67.2796 17.7236C67.2796 13.8915 64.5746 11.2241 60.7049 11.2241ZM60.7049 21.2552C58.6761 21.2552 57.3988 19.8651 57.3988 17.7236C57.3988 15.5822 58.7137 14.1921 60.7049 14.1921C62.6585 14.1921 64.011 15.6197 64.011 17.7236C63.9735 19.8275 62.6585 21.2552 60.7049 21.2552Z" fill="#E30613"/>
<path d="M74.5682 16.3711C73.0278 16.1457 71.6753 15.9578 71.6753 14.9059C71.6753 14.3799 72.051 13.7036 73.7792 13.7036C75.1693 13.7036 76.1837 14.3048 76.4842 15.3567L79.4523 14.6805C78.8136 12.4263 76.8599 11.1865 73.9671 11.1865C70.7361 11.1865 68.557 12.6893 68.557 14.9434C68.557 18.0993 71.3372 18.475 73.5914 18.8131C75.1693 19.0385 76.5594 19.2264 76.5594 20.3535C76.5594 20.9546 76.1085 21.6684 73.9671 21.6684C72.3516 21.6684 71.262 21.0673 70.9239 19.9778L67.9559 20.5789C68.6322 22.9082 70.6609 24.148 73.8919 24.148C77.4611 24.148 79.7152 22.6452 79.7152 20.2408C79.7528 17.1225 76.8975 16.7092 74.5682 16.3711Z" fill="#E30613"/>
<path d="M85.9519 21.4054C84.9751 21.4054 84.4115 20.7292 84.4115 19.5645V14.3048H89.4459V11.5622H84.4115V7.73005H81.1429V19.6021C81.1429 22.5701 82.796 24.2607 85.6513 24.2607C88.1309 24.2607 89.7464 23.1336 90.31 21.0297L87.6801 20.2032C87.3795 20.9546 86.7784 21.4054 85.9519 21.4054Z" fill="#E30613"/>
<path d="M100.566 13.1401L100.454 12.9899C99.6271 11.8252 98.2746 11.2241 96.4712 11.2241C93.1651 11.2241 90.7982 13.9667 90.7982 17.7236C90.7982 21.5182 93.1651 24.2608 96.3961 24.2608C98.1994 24.2608 99.5519 23.6221 100.416 22.3823L100.529 22.232V22.2696L101.167 23.9226H103.76V11.5998H101.167L100.566 13.1401ZM97.2602 21.2552C95.3441 21.2552 94.0668 19.8651 94.0668 17.6861C94.0668 15.5446 95.3066 14.1545 97.2602 14.1545C99.2138 14.1545 100.491 15.5446 100.491 17.6861C100.491 19.8275 99.1763 21.2552 97.2602 21.2552Z" fill="#E30613"/>
<path d="M47.2175 11.2241C45.4893 11.2241 44.1744 11.8252 43.3103 12.9898L43.1224 13.2528V7.76765H39.8539V23.9226H42.4462L43.1224 22.1944L43.2351 22.3447C44.1368 23.6221 45.4893 24.2608 47.2551 24.2608C50.5612 24.2608 52.853 21.5933 52.853 17.7612C52.8154 13.8915 50.5237 11.2241 47.2175 11.2241ZM46.391 21.2552C44.8882 21.2552 43.1224 20.6541 43.1224 17.6861C43.1224 15.507 44.3998 14.1169 46.4286 14.1169C48.3071 14.1169 49.5469 15.5446 49.5469 17.6861C49.5093 19.8275 48.2695 21.2552 46.391 21.2552Z" fill="#E30613"/>
</svg>
